<?xml version="1.0" encoding="UTF-8" standalone="no"?>
<!DOCTYPE svg PUBLIC "-//W3C//DTD SVG 1.1//EN"
 "http://www.w3.org/Graphics/SVG/1.1/DTD/svg11.dtd">
<!-- Generated by graphviz version 2.40.1 (20161225.0304)
 -->
<!-- Title: %3 Pages: 1 -->
<svg width="3923pt" height="836pt"
 viewBox="0.00 0.00 3922.99 836.00" xmlns="http://www.w3.org/2000/svg" xmlns:xlink="http://www.w3.org/1999/xlink">
<g id="graph0" class="graph" transform="scale(1 1) rotate(0) translate(4 832)">
<title>%3</title>
<polygon fill="#ffffff" stroke="transparent" points="-4,4 -4,-832 3918.9867,-832 3918.9867,4 -4,4"/>
<!-- [root] aws_instance.mimaquina (expand) -->
<g id="node1" class="node">
<title>[root] aws_instance.mimaquina (expand)</title>
<polygon fill="none" stroke="#000000" points="3103.2122,-684 2906.2122,-684 2906.2122,-648 3103.2122,-648 3103.2122,-684"/>
<text text-anchor="middle" x="3004.7122" y="-662.3" font-family="Times,serif" font-size="14.00" fill="#000000">aws_instance.mimaquina</text>
</g>
<!-- [root] aws_key_pair.miclave (expand) -->
<g id="node2" class="node">
<title>[root] aws_key_pair.miclave (expand)</title>
<polygon fill="none" stroke="#000000" points="2994.7122,-612 2822.7122,-612 2822.7122,-576 2994.7122,-576 2994.7122,-612"/>
<text text-anchor="middle" x="2908.7122" y="-590.3" font-family="Times,serif" font-size="14.00" fill="#000000">aws_key_pair.miclave</text>
</g>
<!-- [root] aws_instance.mimaquina (expand)&#45;&gt;[root] aws_key_pair.miclave (expand) -->
<g id="edge1" class="edge">
<title>[root] aws_instance.mimaquina (expand)&#45;&gt;[root] aws_key_pair.miclave (expand)</title>
<path fill="none" stroke="#000000" d="M2980.4874,-647.8314C2968.5495,-638.8779 2953.9867,-627.9558 2941.1062,-618.2955"/>
<polygon fill="#000000" stroke="#000000" points="2943.0294,-615.3629 2932.9293,-612.1628 2938.8293,-620.9629 2943.0294,-615.3629"/>
</g>
<!-- [root] data.aws_ami.miami (expand) -->
<g id="node3" class="node">
<title>[root] data.aws_ami.miami (expand)</title>
<polygon fill="none" stroke="#000000" points="3253.2122,-612 3090.2122,-612 3090.2122,-576 3253.2122,-576 3253.2122,-612"/>
<text text-anchor="middle" x="3171.7122" y="-590.3" font-family="Times,serif" font-size="14.00" fill="#000000">data.aws_ami.miami</text>
</g>
<!-- [root] aws_instance.mimaquina (expand)&#45;&gt;[root] data.aws_ami.miami (expand) -->
<g id="edge2" class="edge">
<title>[root] aws_instance.mimaquina (expand)&#45;&gt;[root] data.aws_ami.miami (expand)</title>
<path fill="none" stroke="#000000" d="M3046.8534,-647.8314C3069.1886,-638.2018 3096.8058,-626.295 3120.3832,-616.1299"/>
<polygon fill="#000000" stroke="#000000" points="3122.0769,-619.2112 3129.8741,-612.038 3119.3055,-612.7831 3122.0769,-619.2112"/>
</g>
<!-- [root] provider[&quot;registry.terraform.io/hashicorp/aws&quot;] -->
<g id="node5" class="node">
<title>[root] provider[&quot;registry.terraform.io/hashicorp/aws&quot;]</title>
<polygon fill="none" stroke="#000000" points="3296.7122,-540 2969.2721,-522 3296.7122,-504 3624.1523,-522 3296.7122,-540"/>
<text text-anchor="middle" x="3296.7122" y="-518.3" font-family="Times,serif" font-size="14.00" fill="#000000">provider[&quot;registry.terraform.io/hashicorp/aws&quot;]</text>
</g>
<!-- [root] aws_key_pair.miclave (expand)&#45;&gt;[root] provider[&quot;registry.terraform.io/hashicorp/aws&quot;] -->
<g id="edge4" class="edge">
<title>[root] aws_key_pair.miclave (expand)&#45;&gt;[root] provider[&quot;registry.terraform.io/hashicorp/aws&quot;]</title>
<path fill="none" stroke="#000000" d="M2994.822,-578.0209C3059.3518,-566.0463 3147.2333,-549.7384 3211.5363,-537.8059"/>
<polygon fill="#000000" stroke="#000000" points="3212.4533,-541.1955 3221.6469,-535.9297 3211.1761,-534.313 3212.4533,-541.1955"/>
</g>
<!-- [root] var.nombre_despliegue -->
<g id="node7" class="node">
<title>[root] var.nombre_despliegue</title>
<polygon fill="none" stroke="#000000" points="2945.7122,-540 2769.7122,-540 2769.7122,-504 2951.7122,-504 2951.7122,-534 2945.7122,-540"/>
<polyline fill="none" stroke="#000000" points="2945.7122,-540 2945.7122,-534 "/>
<polyline fill="none" stroke="#000000" points="2951.7122,-534 2945.7122,-534 "/>
<text text-anchor="middle" x="2860.7122" y="-518.3" font-family="Times,serif" font-size="14.00" fill="#000000">var.nombre_despliegue</text>
</g>
<!-- [root] aws_key_pair.miclave (expand)&#45;&gt;[root] var.nombre_despliegue -->
<g id="edge5" class="edge">
<title>[root] aws_key_pair.miclave (expand)&#45;&gt;[root] var.nombre_despliegue</title>
<path fill="none" stroke="#000000" d="M2896.5998,-575.8314C2891.1841,-567.7079 2884.688,-557.9637 2878.7201,-549.0118"/>
<polygon fill="#000000" stroke="#000000" points="2881.447,-546.7923 2872.9877,-540.4133 2875.6226,-550.6753 2881.447,-546.7923"/>
</g>
<!-- [root] module.misclaves.output.keys (expand) -->
<g id="node8" class="node">
<title>[root] module.misclaves.output.keys (expand)</title>
<ellipse fill="none" stroke="#000000" cx="2527.7122" cy="-522" rx="223.6604" ry="18"/>
<text text-anchor="middle" x="2527.7122" y="-518.3" font-family="Times,serif" font-size="14.00" fill="#000000">[root] module.misclaves.output.keys (expand)</text>
</g>
<!-- [root] aws_key_pair.miclave (expand)&#45;&gt;[root] module.misclaves.output.keys (expand) -->
<g id="edge3" class="edge">
<title>[root] aws_key_pair.miclave (expand)&#45;&gt;[root] module.misclaves.output.keys (expand)</title>
<path fill="none" stroke="#000000" d="M2822.2574,-577.6621C2763.7125,-566.5985 2686.2556,-551.961 2625.4659,-540.4731"/>
<polygon fill="#000000" stroke="#000000" points="2625.9505,-537.0028 2615.4744,-538.585 2624.6506,-543.8811 2625.9505,-537.0028"/>
</g>
<!-- [root] data.aws_ami.miami (expand)&#45;&gt;[root] provider[&quot;registry.terraform.io/hashicorp/aws&quot;] -->
<g id="edge6" class="edge">
<title>[root] data.aws_ami.miami (expand)&#45;&gt;[root] provider[&quot;registry.terraform.io/hashicorp/aws&quot;]</title>
<path fill="none" stroke="#000000" d="M3203.255,-575.8314C3220.2536,-566.0402 3241.3395,-553.8947 3259.1782,-543.6196"/>
<polygon fill="#000000" stroke="#000000" points="3261.2534,-546.4634 3268.1718,-538.4393 3257.7595,-540.3977 3261.2534,-546.4634"/>
</g>
<!-- [root] module.misclaves.tls_private_key.claves (expand) -->
<g id="node4" class="node">
<title>[root] module.misclaves.tls_private_key.claves (expand)</title>
<polygon fill="none" stroke="#000000" points="3242.7122,-468 2936.7122,-468 2936.7122,-432 3242.7122,-432 3242.7122,-468"/>
<text text-anchor="middle" x="3089.7122" y="-446.3" font-family="Times,serif" font-size="14.00" fill="#000000">module.misclaves.tls_private_key.claves</text>
</g>
<!-- [root] provider[&quot;registry.terraform.io/hashicorp/tls&quot;] -->
<g id="node6" class="node">
<title>[root] provider[&quot;registry.terraform.io/hashicorp/tls&quot;]</title>
<polygon fill="none" stroke="#000000" points="1807.7122,-396 1489.6554,-378 1807.7122,-360 2125.7691,-378 1807.7122,-396"/>
<text text-anchor="middle" x="1807.7122" y="-374.3" font-family="Times,serif" font-size="14.00" fill="#000000">provider[&quot;registry.terraform.io/hashicorp/tls&quot;]</text>
</g>
<!-- [root] module.misclaves.tls_private_key.claves (expand)&#45;&gt;[root] provider[&quot;registry.terraform.io/hashicorp/tls&quot;] -->
<g id="edge25" class="edge">
<title>[root] module.misclaves.tls_private_key.claves (expand)&#45;&gt;[root] provider[&quot;registry.terraform.io/hashicorp/tls&quot;]</title>
<path fill="none" stroke="#000000" d="M2936.6641,-441.4045C2695.5517,-427.8631 2228.9198,-401.656 1977.6968,-387.5467"/>
<polygon fill="#000000" stroke="#000000" points="1977.5558,-384.0334 1967.3753,-386.967 1977.1633,-391.0224 1977.5558,-384.0334"/>
</g>
<!-- [root] module.misclaves.local.existen_ficheros_claves (expand) -->
<g id="node18" class="node">
<title>[root] module.misclaves.local.existen_ficheros_claves (expand)</title>
<ellipse fill="none" stroke="#000000" cx="2447.7122" cy="-378" rx="303.5461" ry="18"/>
<text text-anchor="middle" x="2447.7122" y="-374.3" font-family="Times,serif" font-size="14.00" fill="#000000">[root] module.misclaves.local.existen_ficheros_claves (expand)</text>
</g>
<!-- [root] module.misclaves.tls_private_key.claves (expand)&#45;&gt;[root] module.misclaves.local.existen_ficheros_claves (expand) -->
<g id="edge22" class="edge">
<title>[root] module.misclaves.tls_private_key.claves (expand)&#45;&gt;[root] module.misclaves.local.existen_ficheros_claves (expand)</title>
<path fill="none" stroke="#000000" d="M2936.3452,-432.8C2834.4888,-421.3768 2701.3315,-406.4433 2599.7491,-395.0509"/>
<polygon fill="#000000" stroke="#000000" points="2600.0363,-391.5612 2589.7084,-393.9248 2599.256,-398.5176 2600.0363,-391.5612"/>
</g>
<!-- [root] module.misclaves.var.algorithm (expand) -->
<g id="node21" class="node">
<title>[root] module.misclaves.var.algorithm (expand)</title>
<ellipse fill="none" stroke="#000000" cx="3177.7122" cy="-162" rx="231.259" ry="18"/>
<text text-anchor="middle" x="3177.7122" y="-158.3" font-family="Times,serif" font-size="14.00" fill="#000000">[root] module.misclaves.var.algorithm (expand)</text>
</g>
<!-- [root] module.misclaves.tls_private_key.claves (expand)&#45;&gt;[root] module.misclaves.var.algorithm (expand) -->
<g id="edge23" class="edge">
<title>[root] module.misclaves.tls_private_key.claves (expand)&#45;&gt;[root] module.misclaves.var.algorithm (expand)</title>
<path fill="none" stroke="#000000" d="M3212.0055,-431.9994C3277.0673,-415.5205 3351.7048,-384.0417 3391.7122,-324 3435.4469,-258.3646 3327.7985,-208.7035 3249.8297,-182.5857"/>
<polygon fill="#000000" stroke="#000000" points="3250.5953,-179.1535 3240.0026,-179.3644 3248.4148,-185.8053 3250.5953,-179.1535"/>
</g>
<!-- [root] module.misclaves.var.force_generate (expand) -->
<g id="node22" class="node">
<title>[root] module.misclaves.var.force_generate (expand)</title>
<ellipse fill="none" stroke="#000000" cx="3448.7122" cy="-90" rx="256.1546" ry="18"/>
<text text-anchor="middle" x="3448.7122" y="-86.3" font-family="Times,serif" font-size="14.00" fill="#000000">[root] module.misclaves.var.force_generate (expand)</text>
</g>
<!-- [root] module.misclaves.tls_private_key.claves (expand)&#45;&gt;[root] module.misclaves.var.force_generate (expand) -->
<g id="edge24" class="edge">
<title>[root] module.misclaves.tls_private_key.claves (expand)&#45;&gt;[root] module.misclaves.var.force_generate (expand)</title>
<path fill="none" stroke="#000000" d="M3241.1847,-431.9745C3277.3366,-424.0122 3314.9219,-412.5368 3347.7122,-396 3401.3966,-368.926 3448.7122,-366.125 3448.7122,-306 3448.7122,-306 3448.7122,-306 3448.7122,-234 3448.7122,-193.876 3448.7122,-147.4631 3448.7122,-118.4177"/>
<polygon fill="#000000" stroke="#000000" points="3452.2123,-118.1853 3448.7122,-108.1854 3445.2123,-118.1854 3452.2123,-118.1853"/>
</g>
<!-- [root] module.misclaves.output.keys (expand)&#45;&gt;[root] module.misclaves.tls_private_key.claves (expand) -->
<g id="edge21" class="edge">
<title>[root] module.misclaves.output.keys (expand)&#45;&gt;[root] module.misclaves.tls_private_key.claves (expand)</title>
<path fill="none" stroke="#000000" d="M2646.898,-506.7307C2732.0704,-495.8189 2847.33,-481.0525 2938.9062,-469.3203"/>
<polygon fill="#000000" stroke="#000000" points="2939.6283,-472.7565 2949.1024,-468.0141 2938.7387,-465.8133 2939.6283,-472.7565"/>
</g>
<!-- [root] module.misclaves (close) -->
<g id="node9" class="node">
<title>[root] module.misclaves (close)</title>
<ellipse fill="none" stroke="#000000" cx="2678.7122" cy="-666" rx="155.9723" ry="18"/>
<text text-anchor="middle" x="2678.7122" y="-662.3" font-family="Times,serif" font-size="14.00" fill="#000000">[root] module.misclaves (close)</text>
</g>
<!-- [root] module.misclaves (close)&#45;&gt;[root] module.misclaves.output.keys (expand) -->
<g id="edge7" class="edge">
<title>[root] module.misclaves (close)&#45;&gt;[root] module.misclaves.output.keys (expand)</title>
<path fill="none" stroke="#000000" d="M2659.8933,-648.0535C2633.2183,-622.615 2584.2976,-575.9622 2554.0353,-547.1028"/>
<polygon fill="#000000" stroke="#000000" points="2556.4207,-544.5412 2546.7683,-540.1727 2551.5897,-549.607 2556.4207,-544.5412"/>
</g>
<!-- [root] module.misclaves.local.existe_el_fichero_clave_privada_formato_openssh (expand) -->
<g id="node10" class="node">
<title>[root] module.misclaves.local.existe_el_fichero_clave_privada_formato_openssh (expand)</title>
<ellipse fill="none" stroke="#000000" cx="425.7122" cy="-306" rx="425.9246" ry="18"/>
<text text-anchor="middle" x="425.7122" y="-302.3" font-family="Times,serif" font-size="14.00" fill="#000000">[root] module.misclaves.local.existe_el_fichero_clave_privada_formato_openssh (expand)</text>
</g>
<!-- [root] module.misclaves.local.fichero_clave_privada_formato_openssh (expand) -->
<g id="node11" class="node">
<title>[root] module.misclaves.local.fichero_clave_privada_formato_openssh (expand)</title>
<ellipse fill="none" stroke="#000000" cx="471.7122" cy="-234" rx="379.6327" ry="18"/>
<text text-anchor="middle" x="471.7122" y="-230.3" font-family="Times,serif" font-size="14.00" fill="#000000">[root] module.misclaves.local.fichero_clave_privada_formato_openssh (expand)</text>
</g>
<!-- [root] module.misclaves.local.existe_el_fichero_clave_privada_formato_openssh (expand)&#45;&gt;[root] module.misclaves.local.fichero_clave_privada_formato_openssh (expand) -->
<g id="edge8" class="edge">
<title>[root] module.misclaves.local.existe_el_fichero_clave_privada_formato_openssh (expand)&#45;&gt;[root] module.misclaves.local.fichero_clave_privada_formato_openssh (expand)</title>
<path fill="none" stroke="#000000" d="M437.32,-287.8314C442.51,-279.7079 448.7354,-269.9637 454.4547,-261.0118"/>
<polygon fill="#000000" stroke="#000000" points="457.5137,-262.7246 459.9482,-252.4133 451.6148,-258.9559 457.5137,-262.7246"/>
</g>
<!-- [root] module.misclaves.local.ruta_carperta_de_los_ficheros_de_las_claves (expand) -->
<g id="node19" class="node">
<title>[root] module.misclaves.local.ruta_carperta_de_los_ficheros_de_las_claves (expand)</title>
<ellipse fill="none" stroke="#000000" cx="2126.7122" cy="-162" rx="402.9285" ry="18"/>
<text text-anchor="middle" x="2126.7122" y="-158.3" font-family="Times,serif" font-size="14.00" fill="#000000">[root] module.misclaves.local.ruta_carperta_de_los_ficheros_de_las_claves (expand)</text>
</g>
<!-- [root] module.misclaves.local.fichero_clave_privada_formato_openssh (expand)&#45;&gt;[root] module.misclaves.local.ruta_carperta_de_los_ficheros_de_las_claves (expand) -->
<g id="edge16" class="edge">
<title>[root] module.misclaves.local.fichero_clave_privada_formato_openssh (expand)&#45;&gt;[root] module.misclaves.local.ruta_carperta_de_los_ficheros_de_las_claves (expand)</title>
<path fill="none" stroke="#000000" d="M751.5241,-221.8269C1050.2257,-208.832 1521.734,-188.3193 1827.6272,-175.0116"/>
<polygon fill="#000000" stroke="#000000" points="1828.1472,-178.4923 1837.9856,-174.5609 1827.8429,-171.499 1828.1472,-178.4923"/>
</g>
<!-- [root] module.misclaves.local.existe_el_fichero_clave_privada_formato_pem (expand) -->
<g id="node12" class="node">
<title>[root] module.misclaves.local.existe_el_fichero_clave_privada_formato_pem (expand)</title>
<ellipse fill="none" stroke="#000000" cx="1276.7122" cy="-306" rx="407.5277" ry="18"/>
<text text-anchor="middle" x="1276.7122" y="-302.3" font-family="Times,serif" font-size="14.00" fill="#000000">[root] module.misclaves.local.existe_el_fichero_clave_privada_formato_pem (expand)</text>
</g>
<!-- [root] module.misclaves.local.fichero_clave_privada_formato_pem (expand) -->
<g id="node13" class="node">
<title>[root] module.misclaves.local.fichero_clave_privada_formato_pem (expand)</title>
<ellipse fill="none" stroke="#000000" cx="1322.7122" cy="-234" rx="362.0358" ry="18"/>
<text text-anchor="middle" x="1322.7122" y="-230.3" font-family="Times,serif" font-size="14.00" fill="#000000">[root] module.misclaves.local.fichero_clave_privada_formato_pem (expand)</text>
</g>
<!-- [root] module.misclaves.local.existe_el_fichero_clave_privada_formato_pem (expand)&#45;&gt;[root] module.misclaves.local.fichero_clave_privada_formato_pem (expand) -->
<g id="edge9" class="edge">
<title>[root] module.misclaves.local.existe_el_fichero_clave_privada_formato_pem (expand)&#45;&gt;[root] module.misclaves.local.fichero_clave_privada_formato_pem (expand)</title>
<path fill="none" stroke="#000000" d="M1288.32,-287.8314C1293.51,-279.7079 1299.7354,-269.9637 1305.4547,-261.0118"/>
<polygon fill="#000000" stroke="#000000" points="1308.5137,-262.7246 1310.9482,-252.4133 1302.6148,-258.9559 1308.5137,-262.7246"/>
</g>
<!-- [root] module.misclaves.local.fichero_clave_privada_formato_pem (expand)&#45;&gt;[root] module.misclaves.local.ruta_carperta_de_los_ficheros_de_las_claves (expand) -->
<g id="edge17" class="edge">
<title>[root] module.misclaves.local.fichero_clave_privada_formato_pem (expand)&#45;&gt;[root] module.misclaves.local.ruta_carperta_de_los_ficheros_de_las_claves (expand)</title>
<path fill="none" stroke="#000000" d="M1498.6565,-218.2438C1628.0379,-206.6574 1803.7061,-190.9259 1936.3604,-179.0464"/>
<polygon fill="#000000" stroke="#000000" points="1936.9911,-182.5041 1946.639,-178.126 1936.3667,-175.532 1936.9911,-182.5041"/>
</g>
<!-- [root] module.misclaves.local.existe_el_fichero_clave_publica_formato_openssh (expand) -->
<g id="node14" class="node">
<title>[root] module.misclaves.local.existe_el_fichero_clave_publica_formato_openssh (expand)</title>
<ellipse fill="none" stroke="#000000" cx="2126.7122" cy="-306" rx="424.3247" ry="18"/>
<text text-anchor="middle" x="2126.7122" y="-302.3" font-family="Times,serif" font-size="14.00" fill="#000000">[root] module.misclaves.local.existe_el_fichero_clave_publica_formato_openssh (expand)</text>
</g>
<!-- [root] module.misclaves.local.fichero_clave_publica_formato_openssh (expand) -->
<g id="node15" class="node">
<title>[root] module.misclaves.local.fichero_clave_publica_formato_openssh (expand)</title>
<ellipse fill="none" stroke="#000000" cx="2126.7122" cy="-234" rx="378.8328" ry="18"/>
<text text-anchor="middle" x="2126.7122" y="-230.3" font-family="Times,serif" font-size="14.00" fill="#000000">[root] module.misclaves.local.fichero_clave_publica_formato_openssh (expand)</text>
</g>
<!-- [root] module.misclaves.local.existe_el_fichero_clave_publica_formato_openssh (expand)&#45;&gt;[root] module.misclaves.local.fichero_clave_publica_formato_openssh (expand) -->
<g id="edge10" class="edge">
<title>[root] module.misclaves.local.existe_el_fichero_clave_publica_formato_openssh (expand)&#45;&gt;[root] module.misclaves.local.fichero_clave_publica_formato_openssh (expand)</title>
<path fill="none" stroke="#000000" d="M2126.7122,-287.8314C2126.7122,-280.131 2126.7122,-270.9743 2126.7122,-262.4166"/>
<polygon fill="#000000" stroke="#000000" points="2130.2123,-262.4132 2126.7122,-252.4133 2123.2123,-262.4133 2130.2123,-262.4132"/>
</g>
<!-- [root] module.misclaves.local.fichero_clave_publica_formato_openssh (expand)&#45;&gt;[root] module.misclaves.local.ruta_carperta_de_los_ficheros_de_las_claves (expand) -->
<g id="edge18" class="edge">
<title>[root] module.misclaves.local.fichero_clave_publica_formato_openssh (expand)&#45;&gt;[root] module.misclaves.local.ruta_carperta_de_los_ficheros_de_las_claves (expand)</title>
<path fill="none" stroke="#000000" d="M2126.7122,-215.8314C2126.7122,-208.131 2126.7122,-198.9743 2126.7122,-190.4166"/>
<polygon fill="#000000" stroke="#000000" points="2130.2123,-190.4132 2126.7122,-180.4133 2123.2123,-190.4133 2130.2123,-190.4132"/>
</g>
<!-- [root] module.misclaves.local.existe_el_fichero_clave_publica_formato_pem (expand) -->
<g id="node16" class="node">
<title>[root] module.misclaves.local.existe_el_fichero_clave_publica_formato_pem (expand)</title>
<ellipse fill="none" stroke="#000000" cx="2975.7122" cy="-306" rx="406.7278" ry="18"/>
<text text-anchor="middle" x="2975.7122" y="-302.3" font-family="Times,serif" font-size="14.00" fill="#000000">[root] module.misclaves.local.existe_el_fichero_clave_publica_formato_pem (expand)</text>
</g>
<!-- [root] module.misclaves.local.fichero_clave_publica_formato_pem (expand) -->
<g id="node17" class="node">
<title>[root] module.misclaves.local.fichero_clave_publica_formato_pem (expand)</title>
<ellipse fill="none" stroke="#000000" cx="2930.7122" cy="-234" rx="360.9361" ry="18"/>
<text text-anchor="middle" x="2930.7122" y="-230.3" font-family="Times,serif" font-size="14.00" fill="#000000">[root] module.misclaves.local.fichero_clave_publica_formato_pem (expand)</text>
</g>
<!-- [root] module.misclaves.local.existe_el_fichero_clave_publica_formato_pem (expand)&#45;&gt;[root] module.misclaves.local.fichero_clave_publica_formato_pem (expand) -->
<g id="edge11" class="edge">
<title>[root] module.misclaves.local.existe_el_fichero_clave_publica_formato_pem (expand)&#45;&gt;[root] module.misclaves.local.fichero_clave_publica_formato_pem (expand)</title>
<path fill="none" stroke="#000000" d="M2964.3568,-287.8314C2959.2796,-279.7079 2953.1896,-269.9637 2947.5946,-261.0118"/>
<polygon fill="#000000" stroke="#000000" points="2950.4886,-259.0383 2942.2205,-252.4133 2944.5526,-262.7483 2950.4886,-259.0383"/>
</g>
<!-- [root] module.misclaves.local.fichero_clave_publica_formato_pem (expand)&#45;&gt;[root] module.misclaves.local.ruta_carperta_de_los_ficheros_de_las_claves (expand) -->
<g id="edge19" class="edge">
<title>[root] module.misclaves.local.fichero_clave_publica_formato_pem (expand)&#45;&gt;[root] module.misclaves.local.ruta_carperta_de_los_ficheros_de_las_claves (expand)</title>
<path fill="none" stroke="#000000" d="M2754.768,-218.2438C2625.3866,-206.6574 2449.7183,-190.9259 2317.064,-179.0464"/>
<polygon fill="#000000" stroke="#000000" points="2317.0578,-175.532 2306.7854,-178.126 2316.4334,-182.5041 2317.0578,-175.532"/>
</g>
<!-- [root] module.misclaves.local.existen_ficheros_claves (expand)&#45;&gt;[root] module.misclaves.local.existe_el_fichero_clave_privada_formato_openssh (expand) -->
<g id="edge12" class="edge">
<title>[root] module.misclaves.local.existen_ficheros_claves (expand)&#45;&gt;[root] module.misclaves.local.existe_el_fichero_clave_privada_formato_openssh (expand)</title>
<path fill="none" stroke="#000000" d="M2236.8765,-365.0309C2202.7311,-363.1736 2167.7482,-361.416 2134.7122,-360 1568.3398,-335.7239 1426.2607,-343.7462 859.7122,-324 818.9824,-322.5804 776.108,-320.958 733.8095,-319.2817"/>
<polygon fill="#000000" stroke="#000000" points="733.7801,-315.7779 723.6489,-318.8776 733.5019,-322.7724 733.7801,-315.7779"/>
</g>
<!-- [root] module.misclaves.local.existen_ficheros_claves (expand)&#45;&gt;[root] module.misclaves.local.existe_el_fichero_clave_privada_formato_pem (expand) -->
<g id="edge13" class="edge">
<title>[root] module.misclaves.local.existen_ficheros_claves (expand)&#45;&gt;[root] module.misclaves.local.existe_el_fichero_clave_privada_formato_pem (expand)</title>
<path fill="none" stroke="#000000" d="M2236.6699,-365.0239C2036.5774,-352.721 1735.957,-334.2371 1524.5571,-321.239"/>
<polygon fill="#000000" stroke="#000000" points="1524.7546,-317.7446 1514.5586,-320.6242 1524.325,-324.7314 1524.7546,-317.7446"/>
</g>
<!-- [root] module.misclaves.local.existen_ficheros_claves (expand)&#45;&gt;[root] module.misclaves.local.existe_el_fichero_clave_publica_formato_openssh (expand) -->
<g id="edge14" class="edge">
<title>[root] module.misclaves.local.existen_ficheros_claves (expand)&#45;&gt;[root] module.misclaves.local.existe_el_fichero_clave_publica_formato_openssh (expand)</title>
<path fill="none" stroke="#000000" d="M2370.0071,-360.5708C2323.3983,-350.1165 2263.9618,-336.785 2215.5033,-325.9158"/>
<polygon fill="#000000" stroke="#000000" points="2216.1756,-322.4797 2205.652,-323.7061 2214.6435,-329.31 2216.1756,-322.4797"/>
</g>
<!-- [root] module.misclaves.local.existen_ficheros_claves (expand)&#45;&gt;[root] module.misclaves.local.existe_el_fichero_clave_publica_formato_pem (expand) -->
<g id="edge15" class="edge">
<title>[root] module.misclaves.local.existen_ficheros_claves (expand)&#45;&gt;[root] module.misclaves.local.existe_el_fichero_clave_publica_formato_pem (expand)</title>
<path fill="none" stroke="#000000" d="M2568.8461,-361.4817C2649.7409,-350.4506 2756.2462,-335.9272 2839.9959,-324.5068"/>
<polygon fill="#000000" stroke="#000000" points="2840.6578,-327.949 2850.0932,-323.1299 2839.712,-321.0132 2840.6578,-327.949"/>
</g>
<!-- [root] module.misclaves.var.keys_path (expand) -->
<g id="node20" class="node">
<title>[root] module.misclaves.var.keys_path (expand)</title>
<ellipse fill="none" stroke="#000000" cx="2515.7122" cy="-90" rx="233.1587" ry="18"/>
<text text-anchor="middle" x="2515.7122" y="-86.3" font-family="Times,serif" font-size="14.00" fill="#000000">[root] module.misclaves.var.keys_path (expand)</text>
</g>
<!-- [root] module.misclaves.local.ruta_carperta_de_los_ficheros_de_las_claves (expand)&#45;&gt;[root] module.misclaves.var.keys_path (expand) -->
<g id="edge20" class="edge">
<title>[root] module.misclaves.local.ruta_carperta_de_los_ficheros_de_las_claves (expand)&#45;&gt;[root] module.misclaves.var.keys_path (expand)</title>
<path fill="none" stroke="#000000" d="M2221.3749,-144.4789C2280.2786,-133.5764 2355.943,-119.5717 2415.8052,-108.4918"/>
<polygon fill="#000000" stroke="#000000" points="2416.4543,-111.9312 2425.6502,-106.6696 2415.1802,-105.0481 2416.4543,-111.9312"/>
</g>
<!-- [root] module.misclaves (expand) -->
<g id="node23" class="node">
<title>[root] module.misclaves (expand)</title>
<ellipse fill="none" stroke="#000000" cx="3164.7122" cy="-18" rx="165.9709" ry="18"/>
<text text-anchor="middle" x="3164.7122" y="-14.3" font-family="Times,serif" font-size="14.00" fill="#000000">[root] module.misclaves (expand)</text>
</g>
<!-- [root] module.misclaves.var.keys_path (expand)&#45;&gt;[root] module.misclaves (expand) -->
<g id="edge28" class="edge">
<title>[root] module.misclaves.var.keys_path (expand)&#45;&gt;[root] module.misclaves (expand)</title>
<path fill="none" stroke="#000000" d="M2649.0056,-75.2124C2763.244,-62.5388 2926.6279,-44.4131 3038.7093,-31.9788"/>
<polygon fill="#000000" stroke="#000000" points="3039.1615,-35.4502 3048.7146,-30.8688 3038.3896,-28.4928 3039.1615,-35.4502"/>
</g>
<!-- [root] module.misclaves.var.algorithm (expand)&#45;&gt;[root] module.misclaves (expand) -->
<g id="edge26" class="edge">
<title>[root] module.misclaves.var.algorithm (expand)&#45;&gt;[root] module.misclaves (expand)</title>
<path fill="none" stroke="#000000" d="M3176.0658,-143.7623C3173.8484,-119.201 3169.8804,-75.2474 3167.272,-46.3541"/>
<polygon fill="#000000" stroke="#000000" points="3170.7304,-45.7344 3166.3453,-36.0896 3163.7587,-46.3638 3170.7304,-45.7344"/>
</g>
<!-- [root] module.misclaves.var.force_generate (expand)&#45;&gt;[root] module.misclaves (expand) -->
<g id="edge27" class="edge">
<title>[root] module.misclaves.var.force_generate (expand)&#45;&gt;[root] module.misclaves (expand)</title>
<path fill="none" stroke="#000000" d="M3379.9637,-72.5708C3337.7772,-61.8756 3283.7124,-48.1691 3240.3209,-37.1684"/>
<polygon fill="#000000" stroke="#000000" points="3240.9394,-33.7145 3230.3859,-34.6497 3239.2191,-40.4999 3240.9394,-33.7145"/>
</g>
<!-- [root] provider[&quot;registry.terraform.io/hashicorp/aws&quot;] (close) -->
<g id="node24" class="node">
<title>[root] provider[&quot;registry.terraform.io/hashicorp/aws&quot;] (close)</title>
<ellipse fill="none" stroke="#000000" cx="3004.7122" cy="-738" rx="293.548" ry="18"/>
<text text-anchor="middle" x="3004.7122" y="-734.3" font-family="Times,serif" font-size="14.00" fill="#000000">[root] provider[&quot;registry.terraform.io/hashicorp/aws&quot;] (close)</text>
</g>
<!-- [root] provider[&quot;registry.terraform.io/hashicorp/aws&quot;] (close)&#45;&gt;[root] aws_instance.mimaquina (expand) -->
<g id="edge29" class="edge">
<title>[root] provider[&quot;registry.terraform.io/hashicorp/aws&quot;] (close)&#45;&gt;[root] aws_instance.mimaquina (expand)</title>
<path fill="none" stroke="#000000" d="M3004.7122,-719.8314C3004.7122,-712.131 3004.7122,-702.9743 3004.7122,-694.4166"/>
<polygon fill="#000000" stroke="#000000" points="3008.2123,-694.4132 3004.7122,-684.4133 3001.2123,-694.4133 3008.2123,-694.4132"/>
</g>
<!-- [root] provider[&quot;registry.terraform.io/hashicorp/tls&quot;] (close) -->
<g id="node25" class="node">
<title>[root] provider[&quot;registry.terraform.io/hashicorp/tls&quot;] (close)</title>
<ellipse fill="none" stroke="#000000" cx="3627.7122" cy="-738" rx="287.0492" ry="18"/>
<text text-anchor="middle" x="3627.7122" y="-734.3" font-family="Times,serif" font-size="14.00" fill="#000000">[root] provider[&quot;registry.terraform.io/hashicorp/tls&quot;] (close)</text>
</g>
<!-- [root] provider[&quot;registry.terraform.io/hashicorp/tls&quot;] (close)&#45;&gt;[root] module.misclaves.tls_private_key.claves (expand) -->
<g id="edge30" class="edge">
<title>[root] provider[&quot;registry.terraform.io/hashicorp/tls&quot;] (close)&#45;&gt;[root] module.misclaves.tls_private_key.claves (expand)</title>
<path fill="none" stroke="#000000" d="M3635.3857,-719.9263C3652.4933,-676.4571 3688.0786,-565.1455 3632.7122,-504 3607.4018,-476.0476 3403.5369,-461.9769 3253.0083,-455.333"/>
<polygon fill="#000000" stroke="#000000" points="3252.8618,-451.8235 3242.7195,-454.8867 3252.5584,-458.8169 3252.8618,-451.8235"/>
</g>
<!-- [root] root -->
<g id="node26" class="node">
<title>[root] root</title>
<ellipse fill="none" stroke="#000000" cx="3004.7122" cy="-810" rx="58.4896" ry="18"/>
<text text-anchor="middle" x="3004.7122" y="-806.3" font-family="Times,serif" font-size="14.00" fill="#000000">[root] root</text>
</g>
<!-- [root] root&#45;&gt;[root] module.misclaves (close) -->
<g id="edge31" class="edge">
<title>[root] root&#45;&gt;[root] module.misclaves (close)</title>
<path fill="none" stroke="#000000" d="M2946.8433,-807.0068C2869.061,-801.79 2736.5082,-788.3173 2701.7122,-756 2684.8844,-740.371 2679.6612,-714.2803 2678.3392,-694.2033"/>
<polygon fill="#000000" stroke="#000000" points="2681.8311,-693.919 2677.9597,-684.0568 2674.836,-694.1807 2681.8311,-693.919"/>
</g>
<!-- [root] root&#45;&gt;[root] provider[&quot;registry.terraform.io/hashicorp/aws&quot;] (close) -->
<g id="edge32" class="edge">
<title>[root] root&#45;&gt;[root] provider[&quot;registry.terraform.io/hashicorp/aws&quot;] (close)</title>
<path fill="none" stroke="#000000" d="M3004.7122,-791.8314C3004.7122,-784.131 3004.7122,-774.9743 3004.7122,-766.4166"/>
<polygon fill="#000000" stroke="#000000" points="3008.2123,-766.4132 3004.7122,-756.4133 3001.2123,-766.4133 3008.2123,-766.4132"/>
</g>
<!-- [root] root&#45;&gt;[root] provider[&quot;registry.terraform.io/hashicorp/tls&quot;] (close) -->
<g id="edge33" class="edge">
<title>[root] root&#45;&gt;[root] provider[&quot;registry.terraform.io/hashicorp/tls&quot;] (close)</title>
<path fill="none" stroke="#000000" d="M3059.726,-803.6421C3153.1381,-792.8465 3345.74,-770.5875 3480.6509,-754.9958"/>
<polygon fill="#000000" stroke="#000000" points="3481.1365,-758.4631 3490.6685,-753.8381 3480.3328,-751.5094 3481.1365,-758.4631"/>
</g>
</g>
</svg>
