<?xml version="1.0" encoding="UTF-8" standalone="no"?>
<!DOCTYPE svg PUBLIC "-//W3C//DTD SVG 1.1//EN"
 "http://www.w3.org/Graphics/SVG/1.1/DTD/svg11.dtd">
<!-- Generated by graphviz version 2.40.1 (20161225.0304)
 -->
<!-- Title: %3 Pages: 1 -->
<svg width="2705pt" height="548pt"
 viewBox="0.00 0.00 2704.99 548.00" xmlns="http://www.w3.org/2000/svg" xmlns:xlink="http://www.w3.org/1999/xlink">
<g id="graph0" class="graph" transform="scale(1 1) rotate(0) translate(4 544)">
<title>%3</title>
<polygon fill="#ffffff" stroke="transparent" points="-4,4 -4,-544 2700.9913,-544 2700.9913,4 -4,4"/>
<!-- [root] provider[&quot;registry.terraform.io/hashicorp/tls&quot;] -->
<g id="node1" class="node">
<title>[root] provider[&quot;registry.terraform.io/hashicorp/tls&quot;]</title>
<polygon fill="none" stroke="#000000" points="504.9198,-324 186.863,-306 504.9198,-288 822.9767,-306 504.9198,-324"/>
<text text-anchor="middle" x="504.9198" y="-302.3" font-family="Times,serif" font-size="14.00" fill="#000000">provider[&quot;registry.terraform.io/hashicorp/tls&quot;]</text>
</g>
<!-- [root] tls_private_key.claves (expand) -->
<g id="node2" class="node">
<title>[root] tls_private_key.claves (expand)</title>
<polygon fill="none" stroke="#000000" points="1059.9198,-396 885.9198,-396 885.9198,-360 1059.9198,-360 1059.9198,-396"/>
<text text-anchor="middle" x="972.9198" y="-374.3" font-family="Times,serif" font-size="14.00" fill="#000000">tls_private_key.claves</text>
</g>
<!-- [root] tls_private_key.claves (expand)&#45;&gt;[root] provider[&quot;registry.terraform.io/hashicorp/tls&quot;] -->
<g id="edge19" class="edge">
<title>[root] tls_private_key.claves (expand)&#45;&gt;[root] provider[&quot;registry.terraform.io/hashicorp/tls&quot;]</title>
<path fill="none" stroke="#000000" d="M885.7157,-364.584C804.6508,-352.1125 684.1572,-333.575 600.5055,-320.7055"/>
<polygon fill="#000000" stroke="#000000" points="600.9078,-317.2263 590.4919,-319.1649 599.8433,-324.1449 600.9078,-317.2263"/>
</g>
<!-- [root] var.algorithm -->
<g id="node3" class="node">
<title>[root] var.algorithm</title>
<polygon fill="none" stroke="#000000" points="948.4198,-324 841.4198,-324 841.4198,-288 954.4198,-288 954.4198,-318 948.4198,-324"/>
<polyline fill="none" stroke="#000000" points="948.4198,-324 948.4198,-318 "/>
<polyline fill="none" stroke="#000000" points="954.4198,-318 948.4198,-318 "/>
<text text-anchor="middle" x="897.9198" y="-302.3" font-family="Times,serif" font-size="14.00" fill="#000000">var.algorithm</text>
</g>
<!-- [root] tls_private_key.claves (expand)&#45;&gt;[root] var.algorithm -->
<g id="edge20" class="edge">
<title>[root] tls_private_key.claves (expand)&#45;&gt;[root] var.algorithm</title>
<path fill="none" stroke="#000000" d="M953.9942,-359.8314C944.9342,-351.1337 933.9389,-340.5783 924.0933,-331.1265"/>
<polygon fill="#000000" stroke="#000000" points="926.4772,-328.5633 916.8395,-324.1628 921.6295,-333.613 926.4772,-328.5633"/>
</g>
<!-- [root] var.force_generate -->
<g id="node4" class="node">
<title>[root] var.force_generate</title>
<polygon fill="none" stroke="#000000" points="1117.4198,-324 972.4198,-324 972.4198,-288 1123.4198,-288 1123.4198,-318 1117.4198,-324"/>
<polyline fill="none" stroke="#000000" points="1117.4198,-324 1117.4198,-318 "/>
<polyline fill="none" stroke="#000000" points="1123.4198,-318 1117.4198,-318 "/>
<text text-anchor="middle" x="1047.9198" y="-302.3" font-family="Times,serif" font-size="14.00" fill="#000000">var.force_generate</text>
</g>
<!-- [root] tls_private_key.claves (expand)&#45;&gt;[root] var.force_generate -->
<g id="edge21" class="edge">
<title>[root] tls_private_key.claves (expand)&#45;&gt;[root] var.force_generate</title>
<path fill="none" stroke="#000000" d="M991.8455,-359.8314C1000.9055,-351.1337 1011.9007,-340.5783 1021.7464,-331.1265"/>
<polygon fill="#000000" stroke="#000000" points="1024.2102,-333.613 1029.0002,-324.1628 1019.3625,-328.5633 1024.2102,-333.613"/>
</g>
<!-- [root] local.existen_ficheros_claves (expand) -->
<g id="node14" class="node">
<title>[root] local.existen_ficheros_claves (expand)</title>
<ellipse fill="none" stroke="#000000" cx="1358.9198" cy="-306" rx="217.9616" ry="18"/>
<text text-anchor="middle" x="1358.9198" y="-302.3" font-family="Times,serif" font-size="14.00" fill="#000000">[root] local.existen_ficheros_claves (expand)</text>
</g>
<!-- [root] tls_private_key.claves (expand)&#45;&gt;[root] local.existen_ficheros_claves (expand) -->
<g id="edge18" class="edge">
<title>[root] tls_private_key.claves (expand)&#45;&gt;[root] local.existen_ficheros_claves (expand)</title>
<path fill="none" stroke="#000000" d="M1060.0271,-361.752C1119.5303,-350.653 1198.4834,-335.926 1260.3003,-324.3954"/>
<polygon fill="#000000" stroke="#000000" points="1261.27,-327.7749 1270.4587,-322.5005 1259.9864,-320.8936 1261.27,-327.7749"/>
</g>
<!-- [root] var.keys_path -->
<g id="node5" class="node">
<title>[root] var.keys_path</title>
<polygon fill="none" stroke="#000000" points="1410.9198,-36 1300.9198,-36 1300.9198,0 1416.9198,0 1416.9198,-30 1410.9198,-36"/>
<polyline fill="none" stroke="#000000" points="1410.9198,-36 1410.9198,-30 "/>
<polyline fill="none" stroke="#000000" points="1416.9198,-30 1410.9198,-30 "/>
<text text-anchor="middle" x="1358.9198" y="-14.3" font-family="Times,serif" font-size="14.00" fill="#000000">var.keys_path</text>
</g>
<!-- [root] local.existe_el_fichero_clave_privada_formato_openssh (expand) -->
<g id="node6" class="node">
<title>[root] local.existe_el_fichero_clave_privada_formato_openssh (expand)</title>
<ellipse fill="none" stroke="#000000" cx="339.9198" cy="-234" rx="339.8397" ry="18"/>
<text text-anchor="middle" x="339.9198" y="-230.3" font-family="Times,serif" font-size="14.00" fill="#000000">[root] local.existe_el_fichero_clave_privada_formato_openssh (expand)</text>
</g>
<!-- [root] local.fichero_clave_privada_formato_openssh (expand) -->
<g id="node7" class="node">
<title>[root] local.fichero_clave_privada_formato_openssh (expand)</title>
<ellipse fill="none" stroke="#000000" cx="408.9198" cy="-162" rx="293.548" ry="18"/>
<text text-anchor="middle" x="408.9198" y="-158.3" font-family="Times,serif" font-size="14.00" fill="#000000">[root] local.fichero_clave_privada_formato_openssh (expand)</text>
</g>
<!-- [root] local.existe_el_fichero_clave_privada_formato_openssh (expand)&#45;&gt;[root] local.fichero_clave_privada_formato_openssh (expand) -->
<g id="edge1" class="edge">
<title>[root] local.existe_el_fichero_clave_privada_formato_openssh (expand)&#45;&gt;[root] local.fichero_clave_privada_formato_openssh (expand)</title>
<path fill="none" stroke="#000000" d="M357.3315,-215.8314C365.4409,-207.3694 375.2355,-197.1489 384.1018,-187.8971"/>
<polygon fill="#000000" stroke="#000000" points="386.8817,-190.0549 391.2738,-180.4133 381.8277,-185.2115 386.8817,-190.0549"/>
</g>
<!-- [root] local.ruta_carperta_de_los_ficheros_de_las_claves (expand) -->
<g id="node15" class="node">
<title>[root] local.ruta_carperta_de_los_ficheros_de_las_claves (expand)</title>
<ellipse fill="none" stroke="#000000" cx="1358.9198" cy="-90" rx="317.3438" ry="18"/>
<text text-anchor="middle" x="1358.9198" y="-86.3" font-family="Times,serif" font-size="14.00" fill="#000000">[root] local.ruta_carperta_de_los_ficheros_de_las_claves (expand)</text>
</g>
<!-- [root] local.fichero_clave_privada_formato_openssh (expand)&#45;&gt;[root] local.ruta_carperta_de_los_ficheros_de_las_claves (expand) -->
<g id="edge9" class="edge">
<title>[root] local.fichero_clave_privada_formato_openssh (expand)&#45;&gt;[root] local.ruta_carperta_de_los_ficheros_de_las_claves (expand)</title>
<path fill="none" stroke="#000000" d="M593.7799,-147.9896C755.9615,-135.6979 991.2904,-117.8624 1158.0647,-105.2227"/>
<polygon fill="#000000" stroke="#000000" points="1158.7417,-108.6815 1168.4486,-104.4357 1158.2126,-101.7015 1158.7417,-108.6815"/>
</g>
<!-- [root] local.existe_el_fichero_clave_privada_formato_pem (expand) -->
<g id="node8" class="node">
<title>[root] local.existe_el_fichero_clave_privada_formato_pem (expand)</title>
<ellipse fill="none" stroke="#000000" cx="1019.9198" cy="-234" rx="321.9431" ry="18"/>
<text text-anchor="middle" x="1019.9198" y="-230.3" font-family="Times,serif" font-size="14.00" fill="#000000">[root] local.existe_el_fichero_clave_privada_formato_pem (expand)</text>
</g>
<!-- [root] local.fichero_clave_privada_formato_pem (expand) -->
<g id="node9" class="node">
<title>[root] local.fichero_clave_privada_formato_pem (expand)</title>
<ellipse fill="none" stroke="#000000" cx="1042.9198" cy="-162" rx="276.4512" ry="18"/>
<text text-anchor="middle" x="1042.9198" y="-158.3" font-family="Times,serif" font-size="14.00" fill="#000000">[root] local.fichero_clave_privada_formato_pem (expand)</text>
</g>
<!-- [root] local.existe_el_fichero_clave_privada_formato_pem (expand)&#45;&gt;[root] local.fichero_clave_privada_formato_pem (expand) -->
<g id="edge2" class="edge">
<title>[root] local.existe_el_fichero_clave_privada_formato_pem (expand)&#45;&gt;[root] local.fichero_clave_privada_formato_pem (expand)</title>
<path fill="none" stroke="#000000" d="M1025.7237,-215.8314C1028.2106,-208.0463 1031.1729,-198.7729 1033.9324,-190.1347"/>
<polygon fill="#000000" stroke="#000000" points="1037.3288,-191.0041 1037.0378,-180.4133 1030.6608,-188.874 1037.3288,-191.0041"/>
</g>
<!-- [root] local.fichero_clave_privada_formato_pem (expand)&#45;&gt;[root] local.ruta_carperta_de_los_ficheros_de_las_claves (expand) -->
<g id="edge10" class="edge">
<title>[root] local.fichero_clave_privada_formato_pem (expand)&#45;&gt;[root] local.ruta_carperta_de_los_ficheros_de_las_claves (expand)</title>
<path fill="none" stroke="#000000" d="M1119.0118,-144.6626C1165.228,-134.1323 1224.3676,-120.6575 1272.3647,-109.7214"/>
<polygon fill="#000000" stroke="#000000" points="1273.1457,-113.1333 1282.1182,-107.4991 1271.5905,-106.3082 1273.1457,-113.1333"/>
</g>
<!-- [root] local.existe_el_fichero_clave_publica_formato_openssh (expand) -->
<g id="node10" class="node">
<title>[root] local.existe_el_fichero_clave_publica_formato_openssh (expand)</title>
<ellipse fill="none" stroke="#000000" cx="1697.9198" cy="-234" rx="338.74" ry="18"/>
<text text-anchor="middle" x="1697.9198" y="-230.3" font-family="Times,serif" font-size="14.00" fill="#000000">[root] local.existe_el_fichero_clave_publica_formato_openssh (expand)</text>
</g>
<!-- [root] local.fichero_clave_publica_formato_openssh (expand) -->
<g id="node11" class="node">
<title>[root] local.fichero_clave_publica_formato_openssh (expand)</title>
<ellipse fill="none" stroke="#000000" cx="1674.9198" cy="-162" rx="293.248" ry="18"/>
<text text-anchor="middle" x="1674.9198" y="-158.3" font-family="Times,serif" font-size="14.00" fill="#000000">[root] local.fichero_clave_publica_formato_openssh (expand)</text>
</g>
<!-- [root] local.existe_el_fichero_clave_publica_formato_openssh (expand)&#45;&gt;[root] local.fichero_clave_publica_formato_openssh (expand) -->
<g id="edge3" class="edge">
<title>[root] local.existe_el_fichero_clave_publica_formato_openssh (expand)&#45;&gt;[root] local.fichero_clave_publica_formato_openssh (expand)</title>
<path fill="none" stroke="#000000" d="M1692.116,-215.8314C1689.6291,-208.0463 1686.6667,-198.7729 1683.9073,-190.1347"/>
<polygon fill="#000000" stroke="#000000" points="1687.1789,-188.874 1680.8019,-180.4133 1680.5109,-191.0041 1687.1789,-188.874"/>
</g>
<!-- [root] local.fichero_clave_publica_formato_openssh (expand)&#45;&gt;[root] local.ruta_carperta_de_los_ficheros_de_las_claves (expand) -->
<g id="edge11" class="edge">
<title>[root] local.fichero_clave_publica_formato_openssh (expand)&#45;&gt;[root] local.ruta_carperta_de_los_ficheros_de_las_claves (expand)</title>
<path fill="none" stroke="#000000" d="M1598.4251,-144.5708C1552.3823,-134.0801 1493.6234,-120.6919 1445.8292,-109.8021"/>
<polygon fill="#000000" stroke="#000000" points="1446.3331,-106.3273 1435.8054,-107.5182 1444.778,-113.1524 1446.3331,-106.3273"/>
</g>
<!-- [root] local.existe_el_fichero_clave_publica_formato_pem (expand) -->
<g id="node12" class="node">
<title>[root] local.existe_el_fichero_clave_publica_formato_pem (expand)</title>
<ellipse fill="none" stroke="#000000" cx="2375.9198" cy="-234" rx="321.143" ry="18"/>
<text text-anchor="middle" x="2375.9198" y="-230.3" font-family="Times,serif" font-size="14.00" fill="#000000">[root] local.existe_el_fichero_clave_publica_formato_pem (expand)</text>
</g>
<!-- [root] local.fichero_clave_publica_formato_pem (expand) -->
<g id="node13" class="node">
<title>[root] local.fichero_clave_publica_formato_pem (expand)</title>
<ellipse fill="none" stroke="#000000" cx="2329.9198" cy="-162" rx="274.8512" ry="18"/>
<text text-anchor="middle" x="2329.9198" y="-158.3" font-family="Times,serif" font-size="14.00" fill="#000000">[root] local.fichero_clave_publica_formato_pem (expand)</text>
</g>
<!-- [root] local.existe_el_fichero_clave_publica_formato_pem (expand)&#45;&gt;[root] local.fichero_clave_publica_formato_pem (expand) -->
<g id="edge4" class="edge">
<title>[root] local.existe_el_fichero_clave_publica_formato_pem (expand)&#45;&gt;[root] local.fichero_clave_publica_formato_pem (expand)</title>
<path fill="none" stroke="#000000" d="M2364.3121,-215.8314C2359.1221,-207.7079 2352.8967,-197.9637 2347.1774,-189.0118"/>
<polygon fill="#000000" stroke="#000000" points="2350.0173,-186.9559 2341.6839,-180.4133 2344.1184,-190.7246 2350.0173,-186.9559"/>
</g>
<!-- [root] local.fichero_clave_publica_formato_pem (expand)&#45;&gt;[root] local.ruta_carperta_de_los_ficheros_de_las_claves (expand) -->
<g id="edge12" class="edge">
<title>[root] local.fichero_clave_publica_formato_pem (expand)&#45;&gt;[root] local.ruta_carperta_de_los_ficheros_de_las_claves (expand)</title>
<path fill="none" stroke="#000000" d="M2147.852,-148.4996C1981.1299,-136.1371 1734.7245,-117.8661 1561.7611,-105.0408"/>
<polygon fill="#000000" stroke="#000000" points="1562.0037,-101.5492 1551.7722,-104.3001 1561.486,-108.5301 1562.0037,-101.5492"/>
</g>
<!-- [root] local.existen_ficheros_claves (expand)&#45;&gt;[root] local.existe_el_fichero_clave_privada_formato_openssh (expand) -->
<g id="edge5" class="edge">
<title>[root] local.existen_ficheros_claves (expand)&#45;&gt;[root] local.existe_el_fichero_clave_privada_formato_openssh (expand)</title>
<path fill="none" stroke="#000000" d="M1202.9405,-293.4031C1179.153,-291.5481 1154.8857,-289.6934 1131.9198,-288 940.6033,-273.893 723.1891,-259.1623 564.6176,-248.6566"/>
<polygon fill="#000000" stroke="#000000" points="564.4681,-245.1391 554.2587,-247.9708 564.0056,-252.1239 564.4681,-245.1391"/>
</g>
<!-- [root] local.existen_ficheros_claves (expand)&#45;&gt;[root] local.existe_el_fichero_clave_privada_formato_pem (expand) -->
<g id="edge6" class="edge">
<title>[root] local.existen_ficheros_claves (expand)&#45;&gt;[root] local.existe_el_fichero_clave_privada_formato_pem (expand)</title>
<path fill="none" stroke="#000000" d="M1279.8672,-289.2101C1229.6892,-278.5528 1164.5555,-264.7191 1112.0398,-253.5653"/>
<polygon fill="#000000" stroke="#000000" points="1112.5597,-250.0977 1102.0507,-251.4437 1111.1053,-256.945 1112.5597,-250.0977"/>
</g>
<!-- [root] local.existen_ficheros_claves (expand)&#45;&gt;[root] local.existe_el_fichero_clave_publica_formato_openssh (expand) -->
<g id="edge7" class="edge">
<title>[root] local.existen_ficheros_claves (expand)&#45;&gt;[root] local.existe_el_fichero_clave_publica_formato_openssh (expand)</title>
<path fill="none" stroke="#000000" d="M1437.9724,-289.2101C1488.0585,-278.5723 1553.0457,-264.7697 1605.5112,-253.6266"/>
<polygon fill="#000000" stroke="#000000" points="1606.4372,-257.0081 1615.4918,-251.5068 1604.9829,-250.1608 1606.4372,-257.0081"/>
</g>
<!-- [root] local.existen_ficheros_claves (expand)&#45;&gt;[root] local.existe_el_fichero_clave_publica_formato_pem (expand) -->
<g id="edge8" class="edge">
<title>[root] local.existen_ficheros_claves (expand)&#45;&gt;[root] local.existe_el_fichero_clave_publica_formato_pem (expand)</title>
<path fill="none" stroke="#000000" d="M1524.2984,-294.2918C1699.3948,-281.8956 1976.2354,-262.2962 2166.465,-248.8287"/>
<polygon fill="#000000" stroke="#000000" points="2166.864,-252.3093 2176.5918,-248.1117 2166.3696,-245.3267 2166.864,-252.3093"/>
</g>
<!-- [root] local.ruta_carperta_de_los_ficheros_de_las_claves (expand)&#45;&gt;[root] var.keys_path -->
<g id="edge13" class="edge">
<title>[root] local.ruta_carperta_de_los_ficheros_de_las_claves (expand)&#45;&gt;[root] var.keys_path</title>
<path fill="none" stroke="#000000" d="M1358.9198,-71.8314C1358.9198,-64.131 1358.9198,-54.9743 1358.9198,-46.4166"/>
<polygon fill="#000000" stroke="#000000" points="1362.4199,-46.4132 1358.9198,-36.4133 1355.4199,-46.4133 1362.4199,-46.4132"/>
</g>
<!-- [root] output.keys (expand) -->
<g id="node16" class="node">
<title>[root] output.keys (expand)</title>
<ellipse fill="none" stroke="#000000" cx="751.9198" cy="-450" rx="137.5759" ry="18"/>
<text text-anchor="middle" x="751.9198" y="-446.3" font-family="Times,serif" font-size="14.00" fill="#000000">[root] output.keys (expand)</text>
</g>
<!-- [root] output.keys (expand)&#45;&gt;[root] tls_private_key.claves (expand) -->
<g id="edge14" class="edge">
<title>[root] output.keys (expand)&#45;&gt;[root] tls_private_key.claves (expand)</title>
<path fill="none" stroke="#000000" d="M803.4556,-433.2101C834.567,-423.0742 874.4975,-410.0652 907.7829,-399.2211"/>
<polygon fill="#000000" stroke="#000000" points="909.0069,-402.5035 917.4308,-396.0779 906.8384,-395.8478 909.0069,-402.5035"/>
</g>
<!-- [root] provider[&quot;registry.terraform.io/hashicorp/tls&quot;] (close) -->
<g id="node17" class="node">
<title>[root] provider[&quot;registry.terraform.io/hashicorp/tls&quot;] (close)</title>
<ellipse fill="none" stroke="#000000" cx="1194.9198" cy="-450" rx="287.0492" ry="18"/>
<text text-anchor="middle" x="1194.9198" y="-446.3" font-family="Times,serif" font-size="14.00" fill="#000000">[root] provider[&quot;registry.terraform.io/hashicorp/tls&quot;] (close)</text>
</g>
<!-- [root] provider[&quot;registry.terraform.io/hashicorp/tls&quot;] (close)&#45;&gt;[root] tls_private_key.claves (expand) -->
<g id="edge15" class="edge">
<title>[root] provider[&quot;registry.terraform.io/hashicorp/tls&quot;] (close)&#45;&gt;[root] tls_private_key.claves (expand)</title>
<path fill="none" stroke="#000000" d="M1140.3282,-432.2946C1109.4962,-422.295 1070.7561,-409.7307 1038.3099,-399.2076"/>
<polygon fill="#000000" stroke="#000000" points="1039.0502,-395.7683 1028.4582,-396.0124 1036.8906,-402.4268 1039.0502,-395.7683"/>
</g>
<!-- [root] root -->
<g id="node18" class="node">
<title>[root] root</title>
<ellipse fill="none" stroke="#000000" cx="972.9198" cy="-522" rx="58.4896" ry="18"/>
<text text-anchor="middle" x="972.9198" y="-518.3" font-family="Times,serif" font-size="14.00" fill="#000000">[root] root</text>
</g>
<!-- [root] root&#45;&gt;[root] output.keys (expand) -->
<g id="edge16" class="edge">
<title>[root] root&#45;&gt;[root] output.keys (expand)</title>
<path fill="none" stroke="#000000" d="M932.642,-508.8778C899.2702,-498.0055 851.3078,-482.3798 813.1786,-469.9576"/>
<polygon fill="#000000" stroke="#000000" points="813.8021,-466.4797 803.2098,-466.7098 811.6337,-473.1354 813.8021,-466.4797"/>
</g>
<!-- [root] root&#45;&gt;[root] provider[&quot;registry.terraform.io/hashicorp/tls&quot;] (close) -->
<g id="edge17" class="edge">
<title>[root] root&#45;&gt;[root] provider[&quot;registry.terraform.io/hashicorp/tls&quot;] (close)</title>
<path fill="none" stroke="#000000" d="M1013.3799,-508.8778C1045.9843,-498.3034 1092.4532,-483.2324 1130.214,-470.9857"/>
<polygon fill="#000000" stroke="#000000" points="1131.68,-474.1898 1140.1124,-467.7754 1129.5204,-467.5312 1131.68,-474.1898"/>
</g>
</g>
</svg>
